<?xml version="1.0" standalone="no"?>
<!DOCTYPE svg PUBLIC "-//W3C//DTD SVG 20010904//EN"
 "http://www.w3.org/TR/2001/REC-SVG-20010904/DTD/svg10.dtd">
<svg version="1.0" xmlns="http://www.w3.org/2000/svg"
 width="626.000000pt" height="500.000000pt" viewBox="0 0 626.000000 500.000000"
 preserveAspectRatio="xMidYMid meet">
<metadata>
Created by potrace 1.16, written by Peter Selinger 2001-2019
</metadata>
<g transform="translate(0.000000,500.000000) scale(0.100000,-0.100000)"
fill="#000000" stroke="none">
<path d="M3751 3893 c-48 -24 -84 -105 -89 -200 -4 -63 -1 -77 24 -122 15 -28
31 -51 35 -51 15 0 29 38 29 77 0 46 13 68 34 60 10 -4 16 -1 16 7 0 30 57 92
96 104 38 11 40 10 71 -21 18 -17 36 -47 39 -66 l7 -33 -34 6 c-32 7 -33 6
-15 -9 11 -8 26 -15 33 -15 21 0 16 -54 -10 -113 -24 -53 -76 -107 -103 -107
-25 0 -16 -47 14 -68 29 -21 132 -74 132 -69 0 2 -9 23 -21 46 -34 71 -34 99
0 197 59 173 53 254 -27 323 -26 23 -53 47 -59 52 -7 5 -41 12 -75 15 -48 4
-71 1 -97 -13z"/>
<path d="M2873 3662 c-21 -2 -33 -9 -33 -18 0 -10 13 -14 50 -14 l50 0 0 -54
c0 -47 3 -56 21 -61 28 -9 30 -5 32 57 l2 53 163 3 162 2 0 -54 c0 -58 8 -71
40 -61 17 5 20 15 20 61 l0 54 50 0 c38 0 50 4 50 15 0 11 -11 15 -37 15 -259
4 -545 4 -570 2z"/>
<path d="M3516 2471 c-4 -36 -11 -155 -16 -263 -7 -161 -12 -203 -27 -228 -20
-34 -85 -70 -126 -70 -27 0 -27 0 -27 -77 0 -107 35 -770 46 -880 l5 -53 52
-15 c61 -18 147 -20 169 -3 13 11 17 62 27 318 6 168 11 347 11 399 0 52 2 92
5 89 3 -3 26 -185 51 -404 28 -241 50 -402 57 -406 33 -20 182 -21 213 0 11 7
40 420 51 738 l6 171 -34 7 c-18 3 -50 17 -70 31 -31 20 -39 33 -49 77 -38
175 -34 288 16 508 13 62 24 114 22 115 -2 1 -87 5 -190 7 l-186 5 -6 -66z"/>
<path d="M1995 2466 c-29 -94 -25 -89 -61 -83 -38 6 -37 9 -54 -148 -12 -118
-35 -270 -51 -339 l-12 -48 -62 6 -62 6 -6 -107 c-4 -60 -10 -285 -13 -500 -7
-380 -6 -393 12 -400 22 -9 161 -10 169 -1 15 15 129 751 161 1043 17 159 25
197 31 155 2 -14 13 -90 24 -170 29 -215 137 -853 167 -995 l8 -40 70 1 c39 1
81 7 94 14 l23 12 -7 317 c-3 174 -9 389 -12 479 l-7 162 -28 0 c-25 0 -28 4
-34 43 -3 23 -11 168 -18 322 l-12 280 -30 -2 c-142 -10 -206 -11 -243 -4 -30
6 -45 5 -47 -3z"/>
<path d="M890 1083 c0 -5 4 -13 10 -19 6 -6 -15 -65 -57 -164 -71 -169 -81
-200 -64 -200 13 0 18 10 100 205 40 95 63 139 73 136 7 -2 39 -8 70 -14 l58
-10 2 -176 c4 -236 22 -236 26 0 l2 176 58 10 c31 6 63 13 70 15 9 2 38 -54
86 -166 64 -151 96 -205 96 -164 0 7 -31 87 -70 177 -50 118 -67 168 -59 177
17 20 -5 24 -55 9 -103 -31 -198 -28 -323 10 -13 4 -23 3 -23 -2z"/>
<path d="M1690 824 c0 -7 -20 -36 -45 -64 -46 -52 -75 -99 -75 -123 0 -11 18
-15 73 -16 70 -2 74 -1 115 35 51 43 68 38 26 -9 -20 -23 -18 -21 8 4 l37 38
-6 68 c-3 37 -6 69 -7 69 -1 1 -29 4 -63 7 -49 4 -63 2 -63 -9z"/>
<path d="M3863 832 c-58 -3 -55 0 -68 -90 -5 -39 -2 -45 32 -80 21 -21 26 -24
11 -7 -45 50 -32 61 17 16 43 -39 47 -41 109 -41 l65 0 -10 32 c-5 18 -9 34
-9 35 0 1 -18 23 -40 48 -22 25 -40 55 -40 65 0 24 -4 26 -67 22z"/>
<path d="M3495 821 l-50 -6 -9 -64 -8 -63 43 -44 c24 -24 47 -44 51 -44 4 0
-13 19 -37 41 -25 23 -42 46 -39 51 3 5 26 -9 50 -32 41 -38 47 -40 108 -40
l65 0 -9 29 c-11 41 -25 63 -54 90 -14 13 -30 39 -36 57 -7 19 -15 33 -18 32
-4 0 -29 -4 -57 -7z"/>
<path d="M2350 810 c-8 -5 -25 -10 -37 -10 -42 0 -63 -34 -63 -97 0 -37 3 -53
9 -44 7 11 39 12 177 6 108 -5 172 -11 176 -19 5 -7 8 -3 8 9 -1 32 -22 52
-78 74 -29 10 -71 35 -92 55 -40 36 -72 44 -100 26z"/>
</g>
</svg>
